<?xml version="1.0" encoding="utf-8"?>
<!-- Generator: Adobe Illustrator 16.0.0, SVG Export Plug-In . SVG Version: 6.00 Build 0)  -->
<!DOCTYPE svg PUBLIC "-//W3C//DTD SVG 1.1//EN" "http://www.w3.org/Graphics/SVG/1.1/DTD/svg11.dtd">
<svg version="1.1" id="Layer_2" xmlns="http://www.w3.org/2000/svg" xmlns:xlink="http://www.w3.org/1999/xlink" x="0px" y="0px"
	 width="190px" height="78px" viewBox="0 0 190 78" enable-background="new 0 0 190 78"
	 xml:space="preserve">
<path fill-rule="evenodd" clip-rule="evenodd" fill="#2CAFC3" d="M157.525,4.493c-2.028-0.336-4.045,0.007-6.037,0.007h-10.306
	l-0.003,70.531l10.312-0.254c16.515,0.033,31.591-11.394,34.957-28.823C190.196,26.548,177.042,7.763,157.525,4.493z
	 M150.366,18.586c1.309-4.001,5.626-6.191,9.633-4.888c4.017,1.307,6.217,5.597,4.924,9.608c-1.293,4.014-5.589,6.228-9.6,4.943
	C151.273,26.955,149.047,22.617,150.366,18.586z M148.856,38.084c0.523-1.571,2.205-2.43,3.774-1.929
	c1.577,0.505,2.482,2.286,1.955,3.845c-0.524,1.551-2.241,2.412-3.795,1.911C149.177,41.391,148.32,39.695,148.856,38.084z
	 M164.829,58.692c-1.303,4.029-5.652,6.222-9.697,4.886c-3.997-1.317-6.196-5.666-4.878-9.646c1.318-3.98,5.668-6.175,9.659-4.872
	C163.908,50.365,166.121,54.699,164.829,58.692z M177.727,41.084c-1.3,3.968-5.659,6.182-9.655,4.902
	c-3.978-1.275-6.247-5.773-4.908-9.726c1.342-3.966,5.714-6.149,9.688-4.839C176.828,32.734,179.03,37.101,177.727,41.084z"/>
<path d="M54.502,75.046V29.592L37.732,74.89H31.83L15.012,29.588V74.89h-7.87V4.297h6.924l20.708,55.917L55.474,4.297h6.897v70.766
	L54.502,75.046z"/>
<path d="M109.222,28.242l1.838-0.01l7.118,3.679l3.912,4.188l3.312,10.443v7.223l-3.312,10.489l-7.039,7.314l-10.029,3.497h-9.753
	l-10.028-3.495l-4.004-4.096l-4.417-9.339l6.671-3.865l4.017,8.386l1.872,2.025l6.965,2.379h7.448l7.171-2.441l4.441-4.652
	l2.406-7.507v-4.745l-2.391-7.384l-1.822-1.879l-4.382-2.261H93.935l17.16-23.877H84.135V4.31h42.288L109.222,28.242z"/>
</svg>